<svg fill="none" height="3937" viewBox="0 0 5714 3937" width="5714" xmlns="http://www.w3.org/2000/svg" xmlns:xlink="http://www.w3.org/1999/xlink"><filter id="a" color-interpolation-filters="sRGB" filterUnits="userSpaceOnUse" height="3937" width="5714" x="0" y="0"><feFlood flood-opacity="0" result="BackgroundImageFix"/><feColorMatrix in="SourceAlpha" result="hardAlpha" type="matrix" values="0 0 0 0 0 0 0 0 0 0 0 0 0 0 0 0 0 0 127 0"/><feOffset dy="1"/><feGaussianBlur stdDeviation="2.5"/><feComposite in2="hardAlpha" operator="out"/><feColorMatrix type="matrix" values="0 0 0 0 0 0 0 0 0 0 0 0 0 0 0 0 0 0 0.25 0"/><feBlend in2="BackgroundImageFix" mode="normal" result="effect1_dropShadow_101_17"/><feBlend in="SourceGraphic" in2="effect1_dropShadow_101_17" mode="normal" result="shape"/></filter><radialGradient id="b" cx="0" cy="0" gradientTransform="matrix(6699.2486655 3544.45021015 -3297.66610119 6232.81014483 -287.791 -100.863)" gradientUnits="userSpaceOnUse" r="1"><stop offset="0" stop-color="#205c75"/><stop offset=".276042" stop-color="#1d3f64"/><stop offset=".560457" stop-color="#323962"/><stop offset=".945343" stop-color="#5c4987"/></radialGradient><linearGradient id="c"><stop offset="0" stop-color="#fff"/><stop offset=".541667" stop-color="#fff" stop-opacity="0"/></linearGradient><radialGradient id="d" cx="0" cy="0" gradientTransform="matrix(0 37.2103 -37.6871 0 326.886 193.018)" gradientUnits="userSpaceOnUse" r="1" xlink:href="#c"/><radialGradient id="e" cx="0" cy="0" gradientTransform="matrix(0 37.2103 -37.6871 0 727.184 773.298)" gradientUnits="userSpaceOnUse" r="1" xlink:href="#c"/><radialGradient id="f" cx="0" cy="0" gradientTransform="matrix(0 37.2103 -37.6871 0 661.996 1458.17)" gradientUnits="userSpaceOnUse" r="1" xlink:href="#c"/><radialGradient id="g" cx="0" cy="0" gradientTransform="matrix(0 37.2103 -37.6871 0 5309.74 3324.72)" gradientUnits="userSpaceOnUse" r="1" xlink:href="#c"/><radialGradient id="h" cx="0" cy="0" gradientTransform="matrix(0 37.2103 -37.6871 0 4855.45 318.729)" gradientUnits="userSpaceOnUse" r="1" xlink:href="#c"/><radialGradient id="i" cx="0" cy="0" gradientTransform="matrix(0 37.2103 -37.6871 0 4906.38 1115.23)" gradientUnits="userSpaceOnUse" r="1" xlink:href="#c"/><radialGradient id="j" cx="0" cy="0" gradientTransform="matrix(0 60.3411 -61.1143 0 4850.36 2521.18)" gradientUnits="userSpaceOnUse" r="1" xlink:href="#c"/><radialGradient id="k" cx="0" cy="0" gradientTransform="matrix(0 37.2103 -37.6871 0 4260.61 1715.62)" gradientUnits="userSpaceOnUse" r="1" xlink:href="#c"/><radialGradient id="l" cx="0" cy="0" gradientTransform="matrix(0 37.2103 -37.6871 0 2211.24 1495.38)" gradientUnits="userSpaceOnUse" r="1" xlink:href="#c"/><radialGradient id="m" cx="0" cy="0" gradientTransform="matrix(0 50.2842 -50.9286 0 1414.72 1128.3)" gradientUnits="userSpaceOnUse" r="1" xlink:href="#c"/><radialGradient id="n" cx="0" cy="0" gradientTransform="matrix(0 37.2103 -37.6871 0 1051.09 2054.54)" gradientUnits="userSpaceOnUse" r="1" xlink:href="#c"/><radialGradient id="o" cx="0" cy="0" gradientTransform="matrix(0 37.2103 -37.6871 0 1363.79 3317.68)" gradientUnits="userSpaceOnUse" r="1" xlink:href="#c"/><radialGradient id="p" cx="0" cy="0" gradientTransform="matrix(0 15.0853 -15.2786 0 1622.51 3547.98)" gradientUnits="userSpaceOnUse" r="1" xlink:href="#c"/><radialGradient id="q" cx="0" cy="0" gradientTransform="matrix(0 15.0853 -15.2786 0 2051.33 3775.27)" gradientUnits="userSpaceOnUse" r="1" xlink:href="#c"/><radialGradient id="r" cx="0" cy="0" gradientTransform="matrix(0 15.0853 -15.2786 0 1533.89 2849.03)" gradientUnits="userSpaceOnUse" r="1" xlink:href="#c"/><radialGradient id="s" cx="0" cy="0" gradientTransform="matrix(0 15.0853 -15.2786 0 1683.62 1651.26)" gradientUnits="userSpaceOnUse" r="1" xlink:href="#c"/><radialGradient id="t" cx="0" cy="0" gradientTransform="matrix(0 15.0853 -15.2786 0 639.587 1930.84)" gradientUnits="userSpaceOnUse" r="1" xlink:href="#c"/><radialGradient id="u" cx="0" cy="0" gradientTransform="matrix(0 15.0853 -15.2786 0 533.656 3630.45)" gradientUnits="userSpaceOnUse" r="1" xlink:href="#c"/><radialGradient id="v" cx="0" cy="0" gradientTransform="matrix(0 15.0853 -15.2786 0 639.587 2687.12)" gradientUnits="userSpaceOnUse" r="1" xlink:href="#c"/><radialGradient id="w" cx="0" cy="0" gradientTransform="matrix(0 15.0853 -15.2786 0 3753.36 3423.28)" gradientUnits="userSpaceOnUse" r="1" xlink:href="#c"/><radialGradient id="x" cx="0" cy="0" gradientTransform="matrix(0 15.0853 -15.2786 0 3738.08 1872.51)" gradientUnits="userSpaceOnUse" r="1" xlink:href="#c"/><radialGradient id="y" cx="0" cy="0" gradientTransform="matrix(0 15.0853 -15.2786 0 5427.89 1921.79)" gradientUnits="userSpaceOnUse" r="1" xlink:href="#c"/><radialGradient id="z" cx="0" cy="0" gradientTransform="matrix(0 15.0853 -15.2786 0 326.886 893.98)" gradientUnits="userSpaceOnUse" r="1" xlink:href="#c"/><radialGradient id="A" cx="0" cy="0" gradientTransform="matrix(0 7.54264 -7.63929 0 859.089 484.164)" gradientUnits="userSpaceOnUse" r="1" xlink:href="#c"/><radialGradient id="B" cx="0" cy="0" gradientTransform="matrix(0 7.54264 -7.63929 0 1956.09 185.475)" gradientUnits="userSpaceOnUse" r="1" xlink:href="#c"/><radialGradient id="C" cx="0" cy="0" gradientTransform="matrix(0 7.54264 -7.63929 0 2935.96 2679.57)" gradientUnits="userSpaceOnUse" r="1" xlink:href="#c"/><radialGradient id="D" cx="0" cy="0" gradientTransform="matrix(0 7.54264 -7.63929 0 2256.57 3317.18)" gradientUnits="userSpaceOnUse" r="1" xlink:href="#c"/><radialGradient id="E" cx="0" cy="0" gradientTransform="matrix(0 7.54264 -7.63929 0 4362.98 318.225)" gradientUnits="userSpaceOnUse" r="1" xlink:href="#c"/><radialGradient id="F" cx="0" cy="0" gradientTransform="matrix(0 10.0568 -10.1857 0 5407.52 2521.18)" gradientUnits="userSpaceOnUse" r="1" xlink:href="#c"/><radialGradient id="G" cx="0" cy="0" gradientTransform="matrix(0 7.54264 -7.63929 0 4913 3645.03)" gradientUnits="userSpaceOnUse" r="1" xlink:href="#c"/><radialGradient id="H" cx="0" cy="0" gradientTransform="matrix(0 7.54264 -7.63929 0 4171.48 2807.3)" gradientUnits="userSpaceOnUse" r="1" xlink:href="#c"/><radialGradient id="I" cx="0" cy="0" gradientTransform="matrix(0 7.54264 -7.63929 0 4804.02 1849.88)" gradientUnits="userSpaceOnUse" r="1" xlink:href="#c"/><radialGradient id="J" cx="0" cy="0" gradientTransform="matrix(0 7.54264 -7.63929 0 5166.63 1420.46)" gradientUnits="userSpaceOnUse" r="1" xlink:href="#c"/><radialGradient id="K" cx="0" cy="0" gradientTransform="matrix(0 15.0853 -15.2786 0 4313.57 2259.7)" gradientUnits="userSpaceOnUse" r="1" xlink:href="#c"/><radialGradient id="L" cx="0" cy="0" gradientTransform="matrix(0 7.54264 -7.63929 0 4336.49 780.84)" gradientUnits="userSpaceOnUse" r="1" xlink:href="#c"/><radialGradient id="M" cx="0" cy="0" gradientTransform="matrix(0 7.54264 -7.63929 0 2540.75 148.265)" gradientUnits="userSpaceOnUse" r="1" xlink:href="#c"/><radialGradient id="N" cx="0" cy="0" gradientTransform="matrix(0 7.54264 -7.63929 0 2685.39 1159.98)" gradientUnits="userSpaceOnUse" r="1" xlink:href="#c"/><radialGradient id="O" cx="0" cy="0" gradientTransform="matrix(0 7.54264 -7.63929 0 2912.53 1628.63)" gradientUnits="userSpaceOnUse" r="1" xlink:href="#c"/><radialGradient id="P" cx="0" cy="0" gradientTransform="matrix(0 25.1421 -25.4643 0 2961.93 674.741)" gradientUnits="userSpaceOnUse" r="1" xlink:href="#c"/><radialGradient id="Q" cx="0" cy="0" gradientTransform="matrix(0 7.54264 -7.63929 0 3745.72 1280.67)" gradientUnits="userSpaceOnUse" r="1" xlink:href="#c"/><radialGradient id="R" cx="0" cy="0" gradientTransform="matrix(0 15.0853 -15.2786 0 4789.25 3048.16)" gradientUnits="userSpaceOnUse" r="1" xlink:href="#c"/><radialGradient id="S" cx="0" cy="0" gradientTransform="matrix(0 15.0853 -15.2786 0 4313.57 3615.36)" gradientUnits="userSpaceOnUse" r="1" xlink:href="#c"/><radialGradient id="T" cx="0" cy="0" gradientTransform="matrix(0 15.0853 -15.2786 0 5563.36 1078.02)" gradientUnits="userSpaceOnUse" r="1" xlink:href="#c"/><radialGradient id="U" cx="0" cy="0" gradientTransform="matrix(0 15.0853 -15.2786 0 3907.16 649.599)" gradientUnits="userSpaceOnUse" r="1" xlink:href="#c"/><radialGradient id="V" cx="0" cy="0" gradientTransform="matrix(0 15.0853 -15.2786 0 4167.92 1288.21)" gradientUnits="userSpaceOnUse" r="1" xlink:href="#c"/><radialGradient id="W" cx="0" cy="0" gradientTransform="matrix(0 15.0853 -15.2786 0 1258.88 2333.12)" gradientUnits="userSpaceOnUse" r="1" xlink:href="#c"/><radialGradient id="X" cx="0" cy="0" gradientTransform="matrix(0 15.0853 -15.2786 0 3622.98 2687.12)" gradientUnits="userSpaceOnUse" r="1" xlink:href="#c"/><radialGradient id="Y" cx="0" cy="0" gradientTransform="matrix(0 15.0853 -15.2786 0 2883.5 3630.45)" gradientUnits="userSpaceOnUse" r="1" xlink:href="#c"/><radialGradient id="Z" cx="0" cy="0" gradientTransform="matrix(0 15.0853 -15.2786 0 2040.12 2128.96)" gradientUnits="userSpaceOnUse" r="1" xlink:href="#c"/><radialGradient id="aa" cx="0" cy="0" gradientTransform="matrix(0 37.2103 -37.6871 0 1882.24 528.916)" gradientUnits="userSpaceOnUse" r="1" xlink:href="#c"/><radialGradient id="ab" cx="0" cy="0" gradientTransform="matrix(0 37.2103 -37.6871 0 3547.61 267.439)" gradientUnits="userSpaceOnUse" r="1" xlink:href="#c"/><radialGradient id="ac" cx="0" cy="0" gradientTransform="matrix(0 37.2103 -37.6871 0 586.622 3175.88)" gradientUnits="userSpaceOnUse" r="1" xlink:href="#c"/><radialGradient id="ad" cx="0" cy="0" gradientTransform="matrix(0 37.2103 -37.6871 0 2548.39 2724.33)" gradientUnits="userSpaceOnUse" r="1" xlink:href="#c"/><radialGradient id="ae" cx="0" cy="0" gradientTransform="matrix(0 37.2103 -37.6871 0 3021.01 2244.62)" gradientUnits="userSpaceOnUse" r="1" xlink:href="#c"/><radialGradient id="af" cx="0" cy="0" gradientTransform="matrix(0 10.0568 -10.1857 0 3311.3 1254.02)" gradientUnits="userSpaceOnUse" r="1" xlink:href="#c"/><radialGradient id="ag" cx="0" cy="0" gradientTransform="matrix(0 37.2103 -37.6871 0 3068.88 3287.51)" gradientUnits="userSpaceOnUse" r="1" xlink:href="#c"/><radialGradient id="ah" cx="0" cy="0" gradientTransform="matrix(0 37.2103 -37.6871 0 1337.31 223.189)" gradientUnits="userSpaceOnUse" r="1" xlink:href="#c"/><g filter="url(#a)"><path d="m5 4h5704v3927h-5704z" fill="url(#b)"/></g><ellipse cx="326.886" cy="193.018" fill="url(#d)" rx="37.6871" ry="37.2103"/><ellipse cx="727.184" cy="773.298" fill="url(#e)" rx="37.6871" ry="37.2103"/><ellipse cx="661.996" cy="1458.17" fill="url(#f)" rx="37.6871" ry="37.2103"/><ellipse cx="5309.74" cy="3324.72" fill="url(#g)" rx="37.6871" ry="37.2103"/><ellipse cx="4855.45" cy="318.729" fill="url(#h)" rx="37.6871" ry="37.2103"/><ellipse cx="4906.38" cy="1115.23" fill="url(#i)" rx="37.6871" ry="37.2103"/><ellipse cx="4850.36" cy="2521.18" fill="url(#j)" rx="61.1143" ry="60.3411"/><ellipse cx="4260.61" cy="1715.62" fill="url(#k)" rx="37.6871" ry="37.2103"/><ellipse cx="2211.24" cy="1495.38" fill="url(#l)" rx="37.6871" ry="37.2103"/><ellipse cx="1414.72" cy="1128.3" fill="url(#m)" rx="50.9286" ry="50.2842"/><ellipse cx="1051.09" cy="2054.54" fill="url(#n)" rx="37.6871" ry="37.2103"/><ellipse cx="1363.79" cy="3317.68" fill="url(#o)" rx="37.6871" ry="37.2103"/><ellipse cx="1622.51" cy="3547.98" fill="url(#p)" rx="15.2786" ry="15.0853"/><ellipse cx="2051.33" cy="3775.27" fill="url(#q)" rx="15.2786" ry="15.0853"/><ellipse cx="1533.89" cy="2849.03" fill="url(#r)" rx="15.2786" ry="15.0853"/><ellipse cx="1683.62" cy="1651.26" fill="url(#s)" rx="15.2786" ry="15.0853"/><ellipse cx="639.587" cy="1930.84" fill="url(#t)" rx="15.2786" ry="15.0853"/><ellipse cx="533.656" cy="3630.45" fill="url(#u)" rx="15.2786" ry="15.0853"/><ellipse cx="639.587" cy="2687.12" fill="url(#v)" rx="15.2786" ry="15.0853"/><ellipse cx="3753.36" cy="3423.28" fill="url(#w)" rx="15.2786" ry="15.0853"/><ellipse cx="3738.08" cy="1872.51" fill="url(#x)" rx="15.2786" ry="15.0853"/><ellipse cx="5427.89" cy="1921.79" fill="url(#y)" rx="15.2786" ry="15.0853"/><ellipse cx="326.886" cy="893.98" fill="url(#z)" rx="15.2786" ry="15.0853"/><ellipse cx="859.089" cy="484.164" fill="url(#A)" rx="7.63929" ry="7.54264"/><ellipse cx="1956.09" cy="185.475" fill="url(#B)" rx="7.63929" ry="7.54264"/><ellipse cx="2935.96" cy="2679.57" fill="url(#C)" rx="7.63929" ry="7.54264"/><ellipse cx="2256.57" cy="3317.18" fill="url(#D)" rx="7.63929" ry="7.54264"/><ellipse cx="4362.98" cy="318.225" fill="url(#E)" rx="7.63929" ry="7.54264"/><ellipse cx="5407.52" cy="2521.18" fill="url(#F)" rx="10.1857" ry="10.0568"/><ellipse cx="4913" cy="3645.03" fill="url(#G)" rx="7.63929" ry="7.54264"/><ellipse cx="4171.48" cy="2807.3" fill="url(#H)" rx="7.63929" ry="7.54264"/><ellipse cx="4804.02" cy="1849.88" fill="url(#I)" rx="7.63929" ry="7.54264"/><ellipse cx="4804.02" cy="1849.88" fill="url(#I)" rx="7.63929" ry="7.54264"/><ellipse cx="5166.63" cy="1420.46" fill="url(#J)" rx="7.63929" ry="7.54264"/><ellipse cx="4313.57" cy="2259.7" fill="url(#K)" rx="15.2786" ry="15.0853"/><ellipse cx="4336.49" cy="780.841" fill="url(#L)" rx="7.63929" ry="7.54264"/><ellipse cx="2540.75" cy="148.265" fill="url(#M)" rx="7.63929" ry="7.54264"/><ellipse cx="2685.39" cy="1159.98" fill="url(#N)" rx="7.63929" ry="7.54264"/><ellipse cx="2912.53" cy="1628.63" fill="url(#O)" rx="7.63929" ry="7.54264"/><ellipse cx="2961.93" cy="674.741" fill="url(#P)" rx="25.4643" ry="25.1421"/><ellipse cx="3745.72" cy="1280.67" fill="url(#Q)" rx="7.63929" ry="7.54264"/><ellipse cx="4789.25" cy="3048.16" fill="url(#R)" rx="15.2786" ry="15.0853"/><ellipse cx="4313.57" cy="3615.36" fill="url(#S)" rx="15.2786" ry="15.0853"/><ellipse cx="5563.36" cy="1078.02" fill="url(#T)" rx="15.2786" ry="15.0853"/><ellipse cx="3907.16" cy="649.599" fill="url(#U)" rx="15.2786" ry="15.0853"/><ellipse cx="4167.92" cy="1288.21" fill="url(#V)" rx="15.2786" ry="15.0853"/><ellipse cx="1258.88" cy="2333.12" fill="url(#W)" rx="15.2786" ry="15.0853"/><ellipse cx="3622.98" cy="2687.12" fill="url(#X)" rx="15.2786" ry="15.0853"/><ellipse cx="2883.5" cy="3630.45" fill="url(#Y)" rx="15.2786" ry="15.0853"/><ellipse cx="2040.12" cy="2128.96" fill="url(#Z)" rx="15.2786" ry="15.0853"/><ellipse cx="1882.24" cy="528.916" fill="url(#aa)" rx="37.6871" ry="37.2103"/><ellipse cx="3547.61" cy="267.439" fill="url(#ab)" rx="37.6871" ry="37.2103"/><ellipse cx="586.622" cy="3175.88" fill="url(#ac)" rx="37.6871" ry="37.2103"/><ellipse cx="2548.39" cy="2724.33" fill="url(#ad)" rx="37.6871" ry="37.2103"/><ellipse cx="3021.01" cy="2244.62" fill="url(#ae)" rx="37.6871" ry="37.2103"/><ellipse cx="3311.3" cy="1254.02" fill="url(#af)" rx="10.1857" ry="10.0568"/><ellipse cx="3068.88" cy="3287.51" fill="url(#ag)" rx="37.6871" ry="37.2103"/><ellipse cx="1337.31" cy="223.189" fill="url(#ah)" rx="37.6871" ry="37.2103"/></svg>